<mxfile host="65bd71144e">
    <diagram id="cD52tqRjU22jmfu8s6Lm" name="Page-1">
        <mxGraphModel dx="1910" dy="598" grid="1" gridSize="10" guides="1" tooltips="1" connect="1" arrows="1" fold="1" page="1" pageScale="1" pageWidth="850" pageHeight="1100" math="0" shadow="0">
            <root>
                <mxCell id="0"/>
                <mxCell id="1" parent="0"/>
                <mxCell id="168" value="" style="rounded=0;whiteSpace=wrap;html=1;strokeColor=none;sketch=1;fillStyle=cross-hatch;fillColor=#E6E6E6;strokeWidth=1;" parent="1" vertex="1">
                    <mxGeometry x="400" y="0.37999999999999545" width="160" height="160" as="geometry"/>
                </mxCell>
                <mxCell id="169" value="" style="rounded=0;whiteSpace=wrap;html=1;strokeColor=none;sketch=1;fillStyle=cross-hatch;fillColor=#E6E6E6;strokeWidth=1;" parent="1" vertex="1">
                    <mxGeometry x="200" y="0.18999999999999773" width="160" height="160" as="geometry"/>
                </mxCell>
                <mxCell id="170" value="" style="rounded=0;whiteSpace=wrap;html=1;strokeColor=none;sketch=1;fillStyle=cross-hatch;fillColor=#E6E6E6;strokeWidth=1;" parent="1" vertex="1">
                    <mxGeometry width="160" height="160" as="geometry"/>
                </mxCell>
                <mxCell id="171" value="" style="endArrow=none;dashed=1;html=1;" parent="1" edge="1">
                    <mxGeometry width="50" height="50" relative="1" as="geometry">
                        <mxPoint as="sourcePoint"/>
                        <mxPoint x="160" as="targetPoint"/>
                    </mxGeometry>
                </mxCell>
                <mxCell id="172" value="" style="endArrow=none;dashed=1;html=1;" parent="1" edge="1">
                    <mxGeometry width="50" height="50" relative="1" as="geometry">
                        <mxPoint as="sourcePoint"/>
                        <mxPoint y="160" as="targetPoint"/>
                    </mxGeometry>
                </mxCell>
                <mxCell id="173" value="" style="endArrow=none;dashed=1;html=1;" parent="1" edge="1">
                    <mxGeometry width="50" height="50" relative="1" as="geometry">
                        <mxPoint y="159.75" as="sourcePoint"/>
                        <mxPoint x="160" y="159.75" as="targetPoint"/>
                    </mxGeometry>
                </mxCell>
                <mxCell id="174" value="" style="endArrow=none;dashed=1;html=1;" parent="1" edge="1">
                    <mxGeometry width="50" height="50" relative="1" as="geometry">
                        <mxPoint x="201.43" as="sourcePoint"/>
                        <mxPoint x="361.42999999999955" as="targetPoint"/>
                    </mxGeometry>
                </mxCell>
                <mxCell id="175" value="" style="endArrow=none;dashed=1;html=1;" parent="1" edge="1">
                    <mxGeometry width="50" height="50" relative="1" as="geometry">
                        <mxPoint x="201.43" as="sourcePoint"/>
                        <mxPoint x="201.43" y="160" as="targetPoint"/>
                    </mxGeometry>
                </mxCell>
                <mxCell id="176" value="" style="endArrow=none;dashed=1;html=1;" parent="1" edge="1">
                    <mxGeometry width="50" height="50" relative="1" as="geometry">
                        <mxPoint x="361.42999999999955" as="sourcePoint"/>
                        <mxPoint x="361.42999999999955" y="160" as="targetPoint"/>
                    </mxGeometry>
                </mxCell>
                <mxCell id="177" value="" style="endArrow=none;dashed=1;html=1;" parent="1" edge="1">
                    <mxGeometry width="50" height="50" relative="1" as="geometry">
                        <mxPoint x="400" y="0.19000000000005457" as="sourcePoint"/>
                        <mxPoint x="560" y="0.19000000000005457" as="targetPoint"/>
                    </mxGeometry>
                </mxCell>
                <mxCell id="181" value="" style="rounded=0;whiteSpace=wrap;html=1;strokeColor=none;fillColor=#f8cecc;perimeterSpacing=0;" parent="1" vertex="1">
                    <mxGeometry x="40" y="40" width="100" height="80" as="geometry"/>
                </mxCell>
                <mxCell id="184" value="" style="rounded=0;whiteSpace=wrap;html=1;strokeColor=none;fillColor=#f8cecc;perimeterSpacing=0;" parent="1" vertex="1">
                    <mxGeometry x="420" y="40" width="100" height="80" as="geometry"/>
                </mxCell>
                <mxCell id="185" value="" style="endArrow=block;dashed=1;html=1;fontFamily=Lucida Console;dashPattern=1 2;entryX=0;entryY=0.5;entryDx=0;entryDy=0;exitX=0.125;exitY=0.5;exitDx=0;exitDy=0;exitPerimeter=0;startArrow=none;startFill=0;endFill=1;endSize=4;" parent="1" edge="1">
                    <mxGeometry width="50" height="50" relative="1" as="geometry">
                        <mxPoint y="79.77000000000021" as="sourcePoint"/>
                        <mxPoint x="40" y="79.77000000000021" as="targetPoint"/>
                    </mxGeometry>
                </mxCell>
                <mxCell id="186" value="" style="endArrow=none;dashed=1;html=1;fontFamily=Lucida Console;dashPattern=1 2;entryX=0;entryY=0.5;entryDx=0;entryDy=0;exitX=0.125;exitY=0.5;exitDx=0;exitDy=0;exitPerimeter=0;startArrow=block;startFill=1;endSize=4;startSize=4;" parent="1" edge="1">
                    <mxGeometry width="50" height="50" relative="1" as="geometry">
                        <mxPoint x="520" y="80.15000000000009" as="sourcePoint"/>
                        <mxPoint x="560" y="80.15000000000009" as="targetPoint"/>
                    </mxGeometry>
                </mxCell>
                <mxCell id="187" value="" style="endArrow=none;dashed=1;html=1;" parent="1" edge="1">
                    <mxGeometry width="50" height="50" relative="1" as="geometry">
                        <mxPoint x="400" as="sourcePoint"/>
                        <mxPoint x="400" y="160" as="targetPoint"/>
                    </mxGeometry>
                </mxCell>
                <mxCell id="188" value="" style="endArrow=none;dashed=1;html=1;" parent="1" edge="1">
                    <mxGeometry width="50" height="50" relative="1" as="geometry">
                        <mxPoint x="560" as="sourcePoint"/>
                        <mxPoint x="560" y="160" as="targetPoint"/>
                    </mxGeometry>
                </mxCell>
                <mxCell id="189" value="" style="endArrow=none;dashed=1;html=1;" parent="1" edge="1">
                    <mxGeometry width="50" height="50" relative="1" as="geometry">
                        <mxPoint x="160" as="sourcePoint"/>
                        <mxPoint x="160" y="160" as="targetPoint"/>
                    </mxGeometry>
                </mxCell>
                <mxCell id="190" value="" style="rounded=0;whiteSpace=wrap;html=1;strokeColor=none;fillColor=#f8cecc;perimeterSpacing=0;" parent="1" vertex="1">
                    <mxGeometry x="221.43" y="40" width="120" height="80" as="geometry"/>
                </mxCell>
                <mxCell id="191" value="" style="endArrow=none;dashed=1;html=1;" parent="1" edge="1">
                    <mxGeometry width="50" height="50" relative="1" as="geometry">
                        <mxPoint x="201.43" y="160.19000000000005" as="sourcePoint"/>
                        <mxPoint x="361.43" y="160.19000000000005" as="targetPoint"/>
                    </mxGeometry>
                </mxCell>
                <mxCell id="192" value="" style="endArrow=none;dashed=1;html=1;" parent="1" edge="1">
                    <mxGeometry width="50" height="50" relative="1" as="geometry">
                        <mxPoint x="400" y="160" as="sourcePoint"/>
                        <mxPoint x="560" y="160" as="targetPoint"/>
                    </mxGeometry>
                </mxCell>
                <mxCell id="193" value="" style="endArrow=none;dashed=1;html=1;" parent="1" edge="1">
                    <mxGeometry width="50" height="50" relative="1" as="geometry">
                        <mxPoint x="281.25999999999993" as="sourcePoint"/>
                        <mxPoint x="281.25999999999993" y="160" as="targetPoint"/>
                    </mxGeometry>
                </mxCell>
            </root>
        </mxGraphModel>
    </diagram>
</mxfile>